<svg width="188" height="229" viewBox="0 0 188 229" fill="none" xmlns="http://www.w3.org/2000/svg">
<path d="M110.635 17.1869C95.6049 12.1635 80.0438 15.2532 66.5691 23.5467C54.5382 30.9515 44.989 46.3515 46.0899 60.9859C46.8504 71.0959 50.1908 80.8728 52.3206 90.7162C54.517 100.868 57.1738 118.029 51.9574 127.732C46.5804 137.734 40.2282 146.102 36.4564 157.111C34.326 163.33 30.7862 170.449 30.8187 177.135C30.9244 198.9 53.1968 203.593 68.7936 208.805C83.6333 213.765 103.54 212.593 115.074 201.077C120.682 195.478 126.549 190.253 132.164 184.647C135.27 181.546 136.857 177.602 138.901 173.777C144.71 162.906 149.692 152.706 153.614 140.972C158.98 124.917 167.496 108.073 165.354 90.7709C164.391 82.9921 162.874 76.0554 160.4 68.6134C158.944 64.2318 158.278 57.5416 154.403 54.4838C143.224 45.6615 138.657 29.5093 125.176 24.1554C122.249 22.993 119.154 22.1426 116.166 21.1441C113.117 20.1251 111.758 17.562 108.738 16.5529" stroke="black" stroke-linecap="round" stroke-linejoin="round"/>
</svg>
