<svg width="225" height="268" viewBox="0 0 225 268" fill="none" xmlns="http://www.w3.org/2000/svg">
<path d="M164.284 28.0391C177.929 44.8563 168.068 72.8461 167.813 92.2831C167.813 95.5 169.332 97.0901 169.987 100.037C171.067 104.897 171.969 109.684 174.089 114.395C176.337 119.389 177.478 124.295 179.053 129.369C181.101 135.969 185.97 142.089 189.391 147.994C192.262 152.949 194.345 158.43 197.473 163.214C200.674 168.11 204.888 172.188 209.001 176.301C214.649 181.949 216.718 188.957 219.339 196.403C224.1 209.927 224.629 225.768 222.088 239.888C220.808 246.999 216.85 253.423 210.601 257.283C205.738 260.286 200.046 260.547 194.807 262.534C186.853 265.551 180.735 266.719 172.079 266.513C160.772 266.244 149.512 265.816 138.193 265.816L137.769 265.816C132.716 265.817 127.535 265.818 122.604 264.585C117.089 263.206 111.885 260.776 106.194 260.072C100.678 259.39 94.9857 259.003 89.5793 257.652C84.8585 256.472 80.2609 254.856 75.3439 254.739C71.4276 254.646 67.546 254.897 63.652 254.329C51.6474 252.578 38.5975 249.437 27.3455 244.975C19.1453 241.724 13.5003 235.881 7.57178 229.632C-0.930699 220.67 0.909936 201.697 1.82839 190.331C2.71174 179.4 5.24352 169.194 8.63841 158.783C11.7753 149.164 17.3928 140.831 22.8328 132.323C37.1261 109.967 50.3227 86.0118 53.3138 59.3406C54.4055 49.6067 54.4732 40.3584 57.9086 31.0339C60.1433 24.968 63.7536 19.2279 67.5493 14.0088C73.5516 5.75552 81.5788 1.45536 91.5895 1.45536C103.153 1.45536 117.643 -0.954029 127.937 5.31164C134.348 9.2142 140.405 13.3714 147.3 16.3882C150.709 17.8792 154.029 19.563 157.433 21.065C160.725 22.5171 162.125 25.377 164.284 28.0391Z" 
    stroke="black" 
    stroke-linecap="round" 
    stroke-linejoin="round"/>
</svg>
