<svg width="698" height="746" viewBox="0 0 698 746" fill="none" xmlns="http://www.w3.org/2000/svg">
<path d="M12.5635 597.269C-13.8749 542.65 43.2983 486.419 62.5243 440.353C65.5748 432.684 62.3623 427.275 63.1223 419.553C64.376 406.816 66.1123 394.444 63.9939 380.954C61.7483 366.656 62.853 353.745 62.7727 339.971C62.6683 322.056 53.3483 302.282 48.3188 284.562C44.0985 269.692 42.8259 254.407 37.6454 239.672C32.3435 224.591 23.1212 210.384 14.2439 196.199C2.05477 176.721 2.2718 157.809 1.1906 137.268C-0.773443 99.956 12.6018 61.6289 33.8882 30.6705C44.6075 15.0808 62.9948 3.98014 86.0666 1.43202C104.023 -0.55116 121.952 4.88915 140.111 5.72959C167.68 7.00548 187.793 10.7333 214.488 20.4408C249.358 33.1215 283.932 46.1311 319.094 58.182L320.41 58.6328C336.108 64.0106 352.205 69.525 366.355 77.7141C382.179 86.8724 396.04 98.2058 413.052 105.944C429.542 113.444 446.858 120.426 462.371 129.404C475.917 137.244 488.668 145.991 503.831 151.505C515.909 155.897 528.205 159.431 539.764 164.931C575.396 181.886 612.957 203.269 643.68 225.886C666.07 242.369 678.067 262.308 690.558 283.518C708.472 313.936 684.763 357.21 671.131 383.328C658.021 408.449 640.479 430.082 620.06 451.288C601.194 470.882 575.841 484.765 550.873 499.258C485.271 537.338 421.561 580.396 386.977 640.797C374.355 662.84 365.375 684.816 345.861 703.389C333.166 715.471 316.508 725.311 299.768 733.713C273.295 746.998 244.281 748.703 213.182 738.045C177.26 725.733 129.961 716.049 103.925 690.152C87.7092 674.022 72.8364 657.662 54.2763 643.128C45.1029 635.945 36.3845 628.396 27.233 621.19C18.3848 614.224 16.7486 605.915 12.5635 597.269Z" stroke="black" stroke-linecap="round" stroke-linejoin="round"/>
</svg>
