<svg width="270" height="287" viewBox="0 0 270 287" fill="none" xmlns="http://www.w3.org/2000/svg">
<path d="M112.074 1.91816C116.876 2.92611 122.185 2.4919 127.19 2.4919C129.566 3.61379 132.39 4.33682 134.909 5.39438C138.128 6.74545 142.133 6.18986 145.558 6.77812C158.408 8.98456 170.772 10.9378 183.153 15.3843C189.65 17.7178 195.124 20.2017 201.021 23.6193C204.841 25.8334 207.997 30.6407 210.527 34.1154C215.248 40.6009 221.01 46.6798 225.321 53.3866C226.353 54.9906 227.175 58.9282 227.537 60.8115C228.107 63.7724 229.494 67.0351 230.467 69.924C232.834 76.9497 235.088 83.2578 238.472 90.0051C242.841 98.7152 244.489 108.19 248.621 116.904C252.279 124.615 255.989 132.057 260.164 139.55C261.268 141.53 260.986 143.548 260.986 145.726C260.986 149.79 263.496 154.359 265.203 158.045C269.565 167.462 268.705 177.267 268.705 187.306C268.705 191.035 269.811 196.399 267.74 199.658C264.765 204.341 261.794 211.187 260.486 216.465C258.555 224.257 256.435 231.608 251.016 237.863C249.551 239.554 246.454 242.047 245.548 243.972C244.912 245.324 243.793 246.753 242.975 248.055C242.001 249.608 242.886 251.379 241.546 252.645C236.054 257.831 229.792 263.922 222.141 266.145C218.737 267.134 215.331 268.337 211.956 269.318C208.767 270.244 205.064 269.769 202.129 271.309C196.952 274.025 190.435 275.938 184.797 277.958C180.705 279.424 174.757 281.94 170.288 281.94C166.985 281.94 164.078 283.075 160.961 283.729C158.283 284.291 152.949 283.399 150.847 284.843C146.77 287.643 136.729 284.796 133.301 282.278C130.265 280.047 125.744 278.738 122.33 277.08C118.176 275.063 115.052 273.328 111.43 270.668C105.254 266.131 99.2992 261.067 93.7411 255.818C92.2173 254.379 90.5581 253.147 88.9167 251.835C86.9843 250.291 84.6465 249.485 82.8058 247.92C80.8476 246.256 78.493 245.866 76.3733 244.579C74.1419 243.224 72.9308 241.749 70.3339 241.204C64.8917 240.062 58.9568 232.978 56.5755 228.48C55.1782 225.841 54.4901 223.111 53.8238 220.279C53.0668 217.062 49.6398 215.38 48.2132 212.686C46.8642 210.137 46.1181 206.467 44.0678 204.316C41.8645 202.003 39.3137 199.273 37.7425 196.553C35.5358 192.732 33.268 191.61 32.5965 187.171C32.1218 184.032 30.2884 179.696 28.2725 177.316C27.3814 176.264 27.1847 174.121 26.4857 172.895C25.0851 170.438 22.5074 166.51 22.3403 163.748C22.0765 159.389 19.1736 156.341 17.8375 152.24C16.702 148.754 13.5968 145.588 11.9053 142.216C10.3627 139.14 7.86588 136.563 6.58064 133.407C1.26554 120.356 0.684294 107.383 1.11302 93.6163C1.22946 89.8775 3.90716 87.058 5.11546 83.7614C7.13267 78.2578 11.1408 73.4884 13.6207 68.1352C18.9827 56.5603 28.7584 47.9335 37.7783 38.9417C42.7335 34.0019 47.2207 28.5391 52.4301 23.6193C55.1348 21.0649 58.2255 19.0235 60.9353 16.4643C63.7856 13.7724 65.5537 10.2801 68.3327 7.65562C70.391 5.71169 76.0771 4.31439 78.8034 4.31439C81.0408 4.31439 85.7387 3.18059 87.6302 2.18815C90.103 0.89075 93.229 1.27691 95.9924 1.27691C98.1862 1.27691 102.032 0.571799 104.033 1.41191C106.572 2.47755 109.421 1.36143 112.074 1.91816Z" stroke="black" stroke-linecap="round" stroke-linejoin="round"/>
</svg>
