<svg width="545" height="544" viewBox="0 0 545 544" fill="none" xmlns="http://www.w3.org/2000/svg">
<path d="M363.158 68.0367C395.952 100.374 427.049 133.89 459.991 166.373C464.079 170.903 476.912 183.819 478.993 189.388C483.326 200.978 494.409 211.869 502.173 222.066C508.461 230.324 514.416 234.915 518.861 244.383C522.396 251.912 526.551 258.71 529.143 266.562C531.602 274.012 529.692 280.927 530.524 288.517C531.289 295.495 537.027 298.36 536.853 305.53C536.534 318.633 544.341 333.052 543.988 347.576C543.696 359.582 539.81 378.263 533.425 388.327C529.318 394.801 528.544 407.863 527.358 415.296C526.266 422.148 522.099 429.543 519.69 436.249C516.202 445.962 511.293 461.275 503.581 468.839C487.04 485.065 475.632 503.199 455.387 516.681C444.867 523.687 423.587 531.893 410.547 532.664C396.372 533.502 384.589 543.477 369.924 542.982C354.987 542.478 339.944 541.462 325.041 540.228C317.775 539.627 306.348 541.278 299.623 537.977C293.784 535.11 288.854 532.835 282.578 530.356C270.011 525.394 256.946 523.727 245.539 516.487C233.514 508.855 221.958 500.749 209.98 493.146C195.393 483.887 179.463 469.521 162.069 464.278C153.839 461.797 142.908 455.529 134.989 451.674C121.917 445.31 109.003 436.188 98.8979 426.224L53.5366 381.494C40.4964 368.636 32.7362 352.858 24.2333 337.075C15.9501 321.699 6.3435 312.778 1.99651 296.455C-0.0973208 288.592 1.72829 280.095 1.92161 272.143C2.16213 262.251 -0.453227 251.606 2.30733 242.583C6.21534 229.81 9.71561 214.938 17.1033 202.362C36.7449 168.924 65.7288 141.353 81.6391 105.525C97.0246 70.8782 133.22 54.8659 160.96 30.5539C167.956 24.4223 173.896 18.7147 182.651 14.8739C192.556 10.5285 201.202 8.6802 211.433 5.39437C227.906 0.104154 259.47 -1.51524 274.911 6.84053C285.93 12.8033 300.478 14.2856 310.666 22.1373C318.263 27.9915 325.846 31.2446 332.755 38.0566L363.158 68.0367Z" stroke="black" stroke-linecap="round" stroke-linejoin="round"/>
</svg>
