<svg width="486" height="564" viewBox="0 0 486 564" fill="none" xmlns="http://www.w3.org/2000/svg">
<path d="M476.731 358.43C471.285 381.19 461.48 419.612 446.64 439.692C440.32 448.243 438.303 459.129 432.498 467.844C428.973 473.135 426.663 484.077 421.78 487.484C414.925 492.267 410.886 504.876 406.575 511.909C399.201 523.938 386.618 532.925 377.325 543.488C375.741 545.289 370.997 545.772 368.711 547.195C365.055 549.47 360.647 550.855 356.638 552.32C347.665 555.599 339.647 559.074 330.165 560.493C325.903 561.13 322.462 563.701 318.167 562.817L307.405 560.599C294.004 557.839 284.456 551.833 272.216 545.89C249.059 534.645 227.669 520.775 209.662 502.096C202.062 494.212 196.209 484.133 188.414 476.632C184.405 472.774 179.245 470.659 176.233 465.749C168.153 452.576 157.901 442.644 144.387 435.208C133.966 429.475 123.2 424.419 115.435 415.237C109.564 408.294 102.883 401.774 96.3878 395.479C87.4844 386.85 72.7331 379.334 68.2287 366.916C66.1909 361.299 57.7898 356.965 54.2973 352.171C42.6003 336.114 34.5137 318.203 24.2346 301.444C16.3267 288.552 11.5884 274.573 6.82278 259.947C5.36209 255.464 5.38887 250.378 4.88402 245.693C4.68052 243.804 2.7019 242.481 2.42 240.466C1.5212 234.039 0.161053 226.308 1.69087 219.914C5.79077 202.779 11.5828 185.742 16.5298 169.074C19.4415 159.264 23.7179 150.211 26.1958 139.855C27.6014 133.98 31.4236 128.807 33.5654 123.027C38.5504 109.575 45.8276 99.0563 52.9441 86.749C57.7011 78.5223 59.5479 69.8978 65.4976 62.5393C72.0222 54.4697 77.1333 50.9053 86.0983 46.3058C94.2737 42.1114 102.64 40.1143 110.365 35.2428C114.915 32.374 124.698 24.7871 129.845 25.2489C134.794 25.693 143.152 21.4686 147.609 19.3169C154.051 16.2071 158.634 11.5481 165.744 9.35059C172.75 7.18521 177.357 2.68707 184.883 2.33153C194.695 1.868 203.811 0.175992 213.688 1.49072C222.747 2.69647 231.108 1.96952 240.36 2.11353C256.849 2.37018 274.104 8.38025 290.08 11.6715C298.222 13.3491 308.1 21.3242 314.867 25.7608C322.894 31.0237 330.542 38.1907 337.008 45.3188C342.536 51.4131 347.968 56.3845 352.881 63.1287C359.915 72.7848 363.897 84.2813 371.675 93.5683C398.436 125.521 405.322 171.062 434.463 200.975C448.099 214.972 455.909 234.682 470.555 247.614C479.337 255.368 487.033 270.658 484.032 283.201C480.538 297.802 487.479 313.506 483.986 328.105L476.731 358.43Z" stroke="black" stroke-linecap="round" stroke-linejoin="round"/>
</svg>
