<svg width="563" height="594" viewBox="0 0 563 594" fill="none" xmlns="http://www.w3.org/2000/svg">
<path d="M116.915 83.0791C114.03 85.1131 106.845 91.1216 104.653 94.1429C96.9012 96.5721 89.6704 112.357 87.827 116.676C84.238 125.085 78.8366 130.947 72.7629 136.744C68.1528 141.145 65.3393 147.124 61.4152 152.061C56.238 158.576 50.871 165.131 46.4502 172.409C38.7718 185.051 28.8683 195.237 21.0295 207.683C14.2674 218.419 6.94354 229.64 3.23995 242.174C-0.846001 256.002 1.39423 269.531 4.1319 283.429C5.52751 290.514 4.94774 297.71 7.20419 304.448C9.56578 311.5 11.2391 319.996 12.5559 327.424C14.7162 339.609 23.7875 350.752 30.6923 359.958C32.7681 362.726 34.103 367.421 35.3503 370.747C37.4565 376.363 40.2406 381.065 43.0806 386.176C49.3272 397.417 56.2953 408.551 61.6134 420.387C67.2637 432.963 71.1259 445.838 77.6686 457.729C81.1125 463.989 83.9958 470.461 87.9756 476.345C93.298 484.212 99.5228 491.729 103.734 500.438C108.025 509.315 110.898 518.833 115.23 527.718C119.907 537.311 126.844 545.059 132.821 553.6C135.365 557.234 135.394 560.356 139.263 562.321C146.541 566.015 154.386 570.143 162.206 572.103C166.794 573.254 170.527 575.773 174.198 578.923C177.676 581.909 181.423 582.474 185.199 584.178C192.419 587.436 200.271 588.745 207.993 590.439C230.956 595.476 254.932 592.088 277.863 588.762L278.991 588.598C288.199 587.26 297.103 585.967 306.405 585.967C311.971 585.967 317.1 584.245 322.262 582.166C330.763 578.741 339.092 572.715 348.129 571.097C358.373 569.263 368.337 566.849 378.753 566.849C388.486 566.849 396.349 562.976 405.809 560.308C411.698 558.647 418.34 555.724 423.747 552.762C429.242 549.75 436.569 548.352 442.478 546.501C450.719 543.918 457.611 540.109 465.223 535.656C468.934 533.485 471.98 533.381 475.877 532.581C477.719 532.203 479.658 528.866 481.03 527.606C485.38 523.612 489.848 519.448 493.815 514.972C496.138 512.352 497.644 509.017 500.455 506.978C505.546 503.287 509.764 495.219 513.388 489.873C517.03 484.5 521.119 480.184 524.538 474.5C529.373 466.462 534.596 459.755 540.791 452.922C543.259 450.2 547.485 448.158 549.314 444.872C551.843 440.329 554.008 435.323 556.202 430.561C559.495 423.418 561.975 416.824 559.77 408.369C559.04 405.568 558.738 401.638 558.506 398.626L558.482 398.306C558.098 393.33 556.623 388.845 555.955 383.94C554.491 373.21 552.922 358.784 555.063 348.051C557.859 334.028 562 320.754 562 306.293C562 297.928 561.115 290.76 559.324 282.535C555.741 266.076 556.032 250.604 555.756 233.789C555.502 218.291 549.738 203.689 545.945 189.068C544.645 184.06 542.901 178.992 542.03 173.863C541.502 170.751 542.189 166.833 541.089 163.912C539.026 158.438 534.438 153.736 531.178 149.21C520.488 134.368 511.369 117.856 500.406 103.427C497.315 99.36 492.386 96.8956 488.959 93.0295C483.945 87.3735 478.813 81.8624 473.3 76.8182C465.209 69.4145 457.722 63.6066 448.276 59.2652C440.937 55.8924 432.97 53.4333 426.225 48.8675C417.863 43.2076 409.771 35.9697 400.358 32.5444C392.702 29.7582 385.063 27.3199 377.118 25.6126C358.278 21.5643 340.23 14.2621 321.866 7.61241C303.696 1.03279 282.443 -0.805836 263.592 2.86081C254.001 4.72611 244.081 6.62007 234.454 8.17143C228.552 9.12258 223.15 9.76633 217.309 11.4137C213.012 12.6257 208.44 14.4324 203.979 14.4324C199.57 14.4324 194.833 18.837 191.046 20.9728C187.857 22.7714 184.263 25.2707 181.334 27.5133C175.563 31.9306 169.513 38.3764 162.603 40.3706C157.471 41.8515 153.818 47.5382 149.867 51.1595C138.458 61.6168 129.452 74.2396 116.915 83.0791Z" stroke="black" stroke-linecap="round" stroke-linejoin="round"/>
</svg>
