<svg width="119" height="142" viewBox="0 0 119 142" fill="none" xmlns="http://www.w3.org/2000/svg">
<path d="M54.5505 4.16817C62.091 0.609298 70.019 1.01388 78.1263 1.01388C81.643 1.01388 83.421 4.68927 87.0061 4.89608C89.4951 5.03965 90.877 7.51341 92.3807 9.07483C93.3725 10.1046 93.8809 12.1335 94.7175 13.3884C96.1121 15.4799 97.4599 17.7394 98.9757 19.7239C101.58 23.1336 103.972 27.9895 105.233 32.1793C107.249 38.8782 112.308 44.1948 114.347 50.9702C115.638 55.2611 117.852 59.235 117.852 64.0995C117.852 68.1108 118.729 72.3419 116.216 75.5304C115.294 76.7002 114.296 79.263 113.749 80.7067C113.054 82.5442 111.599 84.3254 110.478 85.9369C105.801 92.6612 99.7533 99.9886 97.7554 108.286C97.2041 110.576 95.4442 112.684 94.1204 114.568C92.6901 116.603 91.7508 118.899 89.8103 120.499C86.2675 123.42 83.6086 127.287 79.9957 130.205C75.3293 133.973 70.9981 136.581 65.7152 139.074C60.1801 141.687 52.2027 141.264 46.3717 140.018C43.3688 139.376 40.7413 138.205 37.8294 137.376C35.9049 136.828 33.8643 137.35 32.325 135.92C30.976 134.667 29.0045 133.896 27.8591 132.469C25.9987 130.151 24.4089 127.524 22.5104 125.271C19.5402 121.746 17.0722 117.641 15.6039 113.22C14.5844 110.15 13.3656 107.198 12.2285 104.162C9.69698 97.4025 9.53749 90.2474 9.42432 83.0792C9.36268 79.1752 6.71121 74.9959 6.1528 71.0821C5.53478 66.7506 4.01478 62.3807 2.88127 58.1684C2.34831 56.1878 1.11494 53.5166 1.01183 51.4824C0.759956 46.5133 4.58254 42.3134 7.34716 38.6226C8.96171 36.4672 10.9523 34.4409 12.7997 32.4489C14.1888 30.951 15.5785 28.9791 16.6684 27.2187C17.3535 26.1121 18.7872 25.1198 19.2389 24.0644C19.901 22.5176 21.5191 22.0708 22.6143 21.018C24.1597 19.5322 25.444 17.9554 27.184 16.6505C30.8929 13.8691 35.4174 12.7892 38.9719 10.2341C43.5381 6.95172 49.6114 6.49927 54.5505 4.16817Z" stroke="black" stroke-linecap="round" stroke-linejoin="round"/>
</svg>
