<svg width="501" height="521" viewBox="0 0 501 521" fill="none" xmlns="http://www.w3.org/2000/svg">
<path d="M407.748 66.5294C401.707 65.111 396.952 61.0172 391.612 57.6265C386.33 54.2729 380.555 50.0164 376.177 45.2806C371.811 40.5584 366.03 34.0825 359.997 32.0001C358.493 31.4811 357.53 30.1048 356.094 29.344C350.593 26.4303 344.25 25.9616 338.554 23.6384C325.64 18.3705 314.922 8.32433 301.59 4.9473C284.317 0.572245 266.623 1.01235 248.927 1.01235C233.758 1.01235 218.921 3.66844 203.719 3.66844C193.671 3.66844 186.888 6.97995 177.716 10.9481C158.935 19.074 146.549 34.856 131.105 48.3302C127.524 51.454 123.124 53.4335 119.704 56.7904C115.427 60.9884 111.477 66.7813 107.997 71.8416C103.782 77.9704 99.818 81.1662 94.228 85.7123C89.0973 89.8848 83.4274 94.2257 79.5824 99.9765C77.2475 103.469 74.6202 107.028 71.5142 109.716C61.3965 118.471 51.4803 129.669 43.4947 140.949C38.6987 147.724 34.6321 156.093 29.3315 162.149C23.0042 169.378 17.7895 177.748 12.6689 186.103C9.89981 190.621 6.46 194.539 4.03062 199.383C0.757473 205.911 2.36842 214.336 1.44353 221.468C0.718896 227.057 0.750575 234.878 2.53975 240.159C4.82698 246.911 8.12897 253.304 9.95023 260.228C10.6476 262.879 11.1362 265.884 12.1427 268.393C13.2703 271.204 14.6658 276.359 17.0538 277.935C19.0333 279.241 19.5854 288.514 20.2109 290.97C22.3385 299.322 24.6515 306.691 28.8491 313.989C32.9852 321.18 38.4316 326.89 42.4862 333.91C46.0122 340.015 50.2676 346.278 54.8516 351.42C58.7648 355.81 62.8692 359.205 65.9892 364.455C68.168 368.121 68.7903 370.591 70.111 374.637C72.1281 380.815 75.6008 386.097 77.8284 392.147C79.6187 397.009 84.8611 401.966 85.6774 407.002C86.3524 411.166 89.3807 415.873 91.2462 419.593C93.6661 424.419 95.7049 429.823 98.3498 434.448C101.442 439.855 103.865 445.495 108.567 449.45C110.094 450.735 111.211 454.929 112.381 456.779C114.883 460.732 117.528 464.56 120.055 468.485C124.757 475.789 130.766 480.201 137.814 484.225C143.717 487.596 149.812 491.56 154.74 496.325C162.171 503.512 170.872 509.842 180.435 512.754C189.954 515.652 197.428 519.836 207.446 519.836C219.966 519.836 232.645 520.549 245.068 519C263.538 516.698 282.612 511.139 300.8 506.605C302.571 506.164 303.744 504.777 305.317 503.703C310.426 500.215 315.477 497.034 320.883 494.161C330.19 489.216 340.101 485.674 349.341 480.684C355.056 477.597 360.16 474.986 366.267 473.355C373.395 471.451 379.619 471.034 386.613 467.797C400.06 461.572 412.746 453.881 426.209 447.728C433.052 444.601 437.964 438.608 444.055 434.153C446.064 432.683 450.8 429.991 451.86 427.316C453.671 422.746 461.912 420.355 465.673 417.577C477.072 409.156 482.463 392.153 482.73 377.489C482.897 368.323 481.778 361.67 485.887 353.732C489.11 347.506 490.22 341.075 491.412 334.106C492.755 326.257 495.353 318.664 497.551 311.087C502.763 293.112 498.768 274.216 493.824 256.883C490.869 246.525 487.466 235.462 487.466 224.518C487.466 213.351 483.608 202.891 482.73 191.809C482.301 186.402 481.151 181.383 481.151 175.921C481.151 173.018 481.476 169.759 481.064 166.871C480.369 162 476.945 156.876 474.837 152.607C471.892 146.642 469.139 140.53 465.98 134.703C462.979 129.167 460.241 123.426 457.911 117.487C456 112.615 452.826 110.012 449.536 106.322C446.072 102.436 442.608 98.5501 439.144 94.6643C436.975 92.2309 433.137 89.8673 431.602 86.8928C428.644 81.1618 422.22 77.2706 417.219 74.3009C413.273 71.9571 409.94 68.6444 406.17 66.5294" stroke="black" stroke-linecap="round" stroke-linejoin="round"/>
</svg>
