<svg width="213" height="237" viewBox="0 0 213 237" fill="none" xmlns="http://www.w3.org/2000/svg">
<path d="M126.609 3.24332C130.87 3.85202 134.942 5.33739 139.331 5.42517C141.337 5.42517 145.105 8.77922 146.799 10.0962C149.466 12.1708 155.036 12.6107 157.032 15.1052C158.014 16.3329 161.558 16.9379 163.116 17.7173C164.981 18.6497 166.376 19.133 167.88 20.6367C169.501 22.2577 171.315 22.7679 173.073 23.8019C174.576 24.6862 175.217 26.8876 175.962 28.35C177.405 31.1834 179.124 34.0061 180.848 36.6779C184.96 43.0524 189.761 46.057 192.63 53.0981C193.034 54.0894 193.492 60.5981 194.63 60.5981C196.981 61.5981 196.404 63.7518 196.981 64.7347C199.359 68.785 202.048 72.6491 203.773 77.0576C204.805 79.6954 206.599 82.9508 206.815 85.7543C207.098 89.4296 209.136 92.9677 209.55 96.6943C209.736 98.3712 211.023 98.888 211.209 100.566C211.393 102.22 211.104 103.892 211.363 105.545C212.051 109.932 211.17 112.496 210.134 116.638C209.508 119.143 209.581 121.561 209.581 124.137C209.581 125.47 210.095 128.055 209.458 129.33C206.531 135.184 204.226 141.397 199.931 146.6C195.414 152.073 191.987 158.193 188.285 164.117C187.071 166.059 185.433 168.045 184.013 169.955C182.047 172.602 181.185 175.611 179.465 178.314C175.236 184.959 173.038 192.433 168.095 198.75C162.354 206.085 157.313 213.874 150.148 220.015C146.023 223.551 142.632 227.705 137.948 230.556C133.883 233.03 128.493 234.329 123.843 235.104C117.833 236.105 111.427 235.534 105.343 235.534H86.7822C79.9889 235.534 74.4612 232.841 68.2826 230.003C65.0208 228.504 61.836 226.964 58.5718 225.332C56.1343 224.113 54.4516 221.912 52.4872 220.046C49.3699 217.085 47.4981 214.262 45.2962 210.765C43.8345 208.444 42.2009 205.735 40.3487 203.728C38.4621 201.684 36.8619 198.506 35.3396 196.138C32.865 192.288 30.4604 186.656 29.7774 182.217C29.4755 180.255 27.3887 177.954 26.1512 176.501C24.1131 174.108 22.9678 171.119 21.0807 168.603L20.9808 168.47C18.9907 165.817 16.6565 162.705 15.1805 159.753C13.7652 156.922 13.2091 153.682 12.384 150.657C11.4542 147.247 9.55522 144.115 8.91152 140.639C8.04656 135.968 6.76987 131.448 5.25461 126.902C3.41562 121.385 -0.318591 116.453 1.47477 110.4C1.95938 108.764 1.55064 106.686 1.59769 104.992C1.65789 102.824 0.697716 100.596 1.47477 98.5981C2.03408 97.1599 2.77683 95.1503 2.42741 93.6827C2.04594 92.0805 2.15084 90.4673 2.15084 88.8273C2.15084 83.0662 5.82964 77.793 7.00624 72.1715C7.94077 67.7065 9.23236 60.7399 12.7835 57.5438C14.2712 56.205 15.6186 54.2337 16.6556 52.4426C18.0387 50.0536 20.4736 48.4464 21.7875 46.0814C22.4567 44.877 23.017 42.2069 23.1704 40.8265C23.3733 39.0003 25.5973 35.3752 26.7351 33.9122C30.6658 28.8584 34.1202 26.2242 40.5945 24.2321C43.636 23.2963 46.5208 20.697 49.7214 20.3601C51.1938 20.2051 52.6185 17.9899 53.5934 17.0412C55.3318 15.3499 57.3339 13.8746 59.4015 12.6161C62.0442 11.0074 64.6249 8.89576 67.0319 6.92616L67.1763 6.80804C70.0368 4.46757 75.706 4.09594 79.1611 3.64281C86.0898 2.73413 93.0462 1 99.9348 1C106.44 1 112.985 1.55315 119.418 1.55315C122.014 1.55315 124.122 2.888 126.609 3.24332Z" stroke="black" stroke-linecap="round" stroke-linejoin="round"/>
</svg>
