<svg width="410" height="434" viewBox="0 0 410 434" fill="none" xmlns="http://www.w3.org/2000/svg">
<path d="M267.768 12.6903C270.731 13.7872 273.309 15.5725 276.412 16.329C281.816 17.291 287.856 24.939 293.35 28.329C299.207 31.9425 304.231 38.4623 309.313 43.271C312.788 46.559 315.999 50.2306 319.699 53.2194C322.658 55.6093 325.428 59.3407 328.517 61.271C333.147 64.163 338.741 64.6372 343.26 67.8903C347.269 70.7762 350.417 74.8726 354.518 77.6452C362.157 82.8096 367.717 88.8364 373.025 96.8452C376.84 102.601 379.467 109.261 382.436 115.619C385.03 121.177 388.659 126.023 391.497 131.452C394.382 136.97 396.472 142.27 399.061 148.019C400.808 151.9 401.539 157.545 402.372 161.8C403.789 169.04 406.903 176.712 406.903 184.135C406.903 192.971 408.785 201.516 408.785 210.381C408.785 218.831 409.292 227.467 408.75 235.89C408.324 242.505 405.751 248.831 405.16 255.477C404.467 263.274 404.696 271.048 403.905 278.858C403.572 282.148 404.499 286.172 402.79 289.155C400.945 292.374 400.829 296.418 399.374 299.839C397.524 304.19 396.611 308.507 394.042 312.458C391.213 316.808 388.999 321.6 385.886 325.697C383.4 328.97 378.064 331.679 376.65 335.606C375.448 338.944 372.692 343.042 370.202 345.206C365.584 349.22 362.096 353.678 356.714 356.51C349.999 360.042 344.836 366.523 338.241 370.29C334.231 372.581 329.938 374.084 325.973 376.561C321.355 379.446 316.932 383.556 311.823 385.31C306.277 387.214 300.163 388.379 294.466 389.839C290.01 390.981 285.711 392.677 281.291 393.826C272.565 396.094 265.3 402.562 257.277 406.523C244.957 412.604 231.649 415.359 219.182 421.155C211.907 424.537 206.08 426.032 197.782 426.032C193.996 426.032 192.346 425.792 189.487 427.813C187.207 429.424 184.833 430.199 182.272 430.91C179.457 431.691 177.616 433 174.64 433H164.776C159.941 433 154.254 430.332 149.819 428.251L149.545 428.123C139.32 423.328 124.848 421.519 116.713 412.484C115.391 411.015 112.555 410.501 111.555 408.613C109.88 405.451 107.984 402.978 105.142 400.948C99.4405 396.878 95.6559 391.222 91.9674 385.077C87.866 378.245 80.7582 372.096 79.3853 363.71C79.0577 361.709 77.671 359.97 77.538 357.903C77.3617 355.161 76.8893 352.592 75.3771 350.432C72.907 346.905 70.211 343.453 67.7791 339.981C61.7893 331.427 58.9566 321.239 54.4651 311.761C50.1333 302.62 45.1771 294.182 40.5237 285.323C37.465 279.499 34.1175 274.294 30.7997 268.561C28.9919 265.438 26.3313 263.16 24.3518 260.2C22.3257 257.171 21.3049 253.137 19.8208 249.748C17.655 244.804 16.4454 237.909 16.0915 232.406C15.8722 228.996 14.5765 228.021 12.9199 225.206C10.6181 221.297 8.24067 215.867 7.41302 211.271C6.05486 203.729 5.52363 196.46 3.37003 189.284C2.2469 185.542 1 183.039 1 178.987C1 173.006 2.58294 167.428 5.39153 162.303C6.66819 159.974 7.12575 157.182 8.56319 154.987C9.45405 153.627 10.4104 152.548 10.4104 150.806C10.4104 148.936 10.8538 146.215 11.5257 144.535C12.1479 142.981 11.2864 140.956 11.7 139.348C12.0738 137.895 12.9219 136.185 13.4078 134.626C14.0358 132.611 15.6206 131.084 16.9977 129.555C19.6671 126.59 21.6595 122.613 24.2472 119.452C29.156 113.454 33.2506 106.962 38.6417 101.723C41.6085 98.8394 42.7375 97.0374 44.5667 92.9742C48.2463 84.8007 53.2608 78.1311 59.0658 71.6839C64.6185 65.5168 70.0968 58.3924 76.4227 53.2581C81.7427 48.9403 87.5619 45.5944 93.2221 41.9548C98.2802 38.7025 101.829 33.1561 106.675 29.5677C115.067 23.3543 122.694 16.0282 131.491 10.6C136.138 7.73275 139.961 5.80955 145.293 4.32903C150.397 2.91193 156.364 3.7871 161.604 3.7871C174.436 3.7871 186.963 1 199.873 1C205.395 1 210.659 1.69677 216.185 1.69677C226.268 1.69677 235.686 5.10202 245.636 5.83871C250.541 6.20187 255.261 7.31108 260.135 8.66452C262.826 9.41158 265.073 11.6925 267.768 12.6903Z" stroke="black" stroke-linecap="round" stroke-linejoin="round"/>
</svg>
