<svg width="325" height="344" viewBox="0 0 325 344" fill="none" xmlns="http://www.w3.org/2000/svg">
<path d="M142.821 1.89529C151.487 1.89529 160.086 1 168.581 1C175.358 1 180.701 2.96672 186.613 6.81937C195.309 12.486 205.595 13.9969 215.14 17.3141C225.234 20.8224 233.716 30.0682 243.714 32.3848C247.897 33.354 252.316 37.3726 256.165 39.4974C260.238 41.7454 264.165 46.491 266.898 50.2906C270.478 55.2664 277.673 57.4788 282.307 61.4319C286.546 65.0483 290.694 70.6553 294.046 75.1853L294.137 75.3089C296.321 78.2596 301.563 81.618 302.533 85.1571C303.143 87.3815 305.076 89.8898 306.159 91.9215C308.265 95.8736 311.929 100.814 312.885 105.301C313.501 108.191 315.56 110.783 316.463 113.607C317.293 116.203 318.145 119.074 318.8 121.466C320.297 126.926 323.141 132.196 323.141 137.979C323.141 143.079 324 148.422 324 153.696C324 159.752 322.441 165.15 322.283 171.105C322.204 174.049 320.665 177.902 319.277 180.505C318.214 182.501 318.848 185.902 318.848 188.115L318.848 188.468C318.849 193.609 318.85 197.909 317.131 202.838C314.881 209.289 314.189 216.018 312.79 222.584C311.831 227.081 307.29 231.221 306.827 235.565C306.363 239.912 303.23 244.055 301.007 247.403C298.445 251.261 296.267 255.541 293.47 259.291C290.3 263.54 286.806 267.589 284.31 272.272C282.312 276.023 277.001 277.617 273.863 279.882C271.306 281.728 268.505 283.181 266.278 285.503C264.803 287.041 264.352 289.16 262.605 290.576C259.307 293.251 255.781 295.951 252.73 299.131C246.111 306.032 237.648 311.647 229.546 316.34C223.548 319.815 217.476 324.688 210.274 325.094C204.176 325.438 198.852 330.863 193.053 332.207C188.969 333.153 184.133 335.473 179.934 336.932C175.398 338.509 170.212 338.481 165.528 339.369C155.733 341.226 145.778 343 135.761 343C129.59 343 124.12 341.657 118.11 341.209C113.553 340.87 107.757 339.501 103.751 337.181C100.382 335.229 93.8379 331.306 91.3484 328.277C88.1179 324.348 83.5066 323.663 81.1875 318.827C77.8926 311.956 77.1458 303.247 72.2192 297.539C68.5521 293.291 62.3144 285.501 62.1059 279.633C61.9708 275.828 56.5916 272.312 54.855 268.691C52.3398 263.446 49.1444 257.101 44.9326 253.024C41.6912 249.885 38.8099 243.647 36.9183 239.544C35.9068 237.351 36.7179 235.048 35.678 232.88C33.9871 229.354 34.0476 225.112 31.1939 222.136C28.1726 218.986 26.1229 216.219 23.8952 212.288C22.2843 209.445 21.8321 204.646 19.6018 202.838C14.3028 198.54 12.1198 187.909 9.53633 181.848C7.95332 178.134 7.47915 174.414 5.86313 170.707C2.88144 163.867 0.265518 156.369 1.18816 148.673C1.71853 144.249 1.35822 135.565 3.90727 131.911C6.53538 128.143 7.39051 123.336 9.72714 119.377C11.1549 116.958 10.5049 113.837 11.0151 111.071C11.7594 107.036 12.5357 103.875 14.4498 100.327C17.762 94.1878 20.8606 87.8045 23.8475 81.5759C26.0884 76.9029 31.2642 75.3719 35.2964 72.623C39.2349 69.938 42.8961 67.0906 46.6976 64.1178C50.3073 61.2951 52.8627 56.5302 56.9539 54.0209C61.4396 51.2698 63.4877 47.1479 67.0671 43.2775C72.7813 37.099 81.4466 31.2266 89.154 28.7539C100.366 25.157 109.494 18.8089 118.301 11.2958C125.289 5.33486 133.937 1.89529 142.821 1.89529Z" stroke="black" stroke-linecap="round" stroke-linejoin="round"/>
</svg>
