<svg width="369" height="328" viewBox="0 0 369 328" fill="none" xmlns="http://www.w3.org/2000/svg">
<path d="M22.0747 16.1051C22.4284 15.7472 22.787 15.396 23.1504 15.0515M23.1504 15.0515C34.8264 3.98341 51.4623 -0.150869 69.1196 1.26963C85.3755 2.57738 104.01 12.6167 111.738 26.9706C117.078 36.8869 119.686 47.7088 123.522 58.0209C127.478 68.6559 135.202 86.1344 146.158 92.8384C157.451 99.7487 168.718 104.654 179.043 113.276C184.876 118.146 192.632 123.201 196.624 129.536C209.621 150.159 190.602 165.132 178.443 177.438C166.875 189.146 146.646 197.456 128.403 192.027C119.533 189.388 110.634 187.224 101.753 184.581C96.8409 183.12 92.91 180.143 88.6037 177.494C76.3632 169.967 65.3377 162.682 54.4287 153.445C39.5033 140.808 21.0126 128.915 12.6994 111.547C8.96185 103.739 6.27463 96.4643 4.22179 88.2593C3.01314 83.4284 -0.360696 76.7895 1.59886 72.0661C7.25269 58.438 2.00974 41.0096 12.0083 29.5713C14.1792 27.0878 16.7033 24.8195 19.0323 22.4623C21.2644 20.2032 21.2156 17.3621 23.1504 15.0515ZM23.1504 15.0515C23.276 14.9015 23.41 14.7537 23.5535 14.6085M245.039 252.944C237.786 265.403 229.407 279.01 229.06 293.167C228.786 304.372 236.132 316.251 247.737 320.289C259.95 324.538 268.761 328.698 282.09 326.293C285.757 325.631 289.428 325.84 293.125 325.464C298.667 324.9 304.039 323.446 309.589 322.968C317.997 322.243 325.844 319.873 333.829 317.648C337.974 316.493 343.422 315.842 346.661 313.096C350.713 309.662 354.488 305.955 358.505 302.518C361.055 300.337 362.235 297.77 363.923 295.133C366.063 291.788 365.31 289.02 366.149 285.506C367.763 278.752 368.316 270.718 367.829 263.789C367.532 259.555 362.239 253.831 359.901 250.251C356.69 245.336 352.714 240.606 348.324 236.592C340.77 229.686 335.018 221.616 327.214 214.939C321.304 209.883 314.337 203.303 306.405 201.244C294.244 198.087 279.67 198.938 267.442 201.776C254.58 204.761 255.113 218.51 252.662 228.241C250.688 236.083 248.822 245.763 245.039 252.944Z" stroke="black" stroke-linecap="round" stroke-linejoin="round"/>
</svg>
