<svg width="100" height="110" viewBox="0 0 100 110" fill="none" xmlns="http://www.w3.org/2000/svg">
<g filter="url(#filter0_d)">
<path d="M58.6772 1.95584C60.498 2.2152 62.2384 2.84809 64.1139 2.88549C64.971 2.88549 66.5814 4.31459 67.305 4.87573C68.4449 5.75967 70.8252 5.94713 71.678 7.00999C72.0977 7.53306 73.6121 7.79087 74.2782 8.12295C75.0751 8.52021 75.6711 8.72615 76.3137 9.36685C77.0064 10.0575 77.7819 10.2749 78.533 10.7155C79.1754 11.0923 79.4491 12.0303 79.7675 12.6534C80.3843 13.8606 81.1189 15.0633 81.8555 16.2017C83.6129 18.9178 85.6645 20.198 86.8904 23.1981C87.063 23.6205 87.2589 26.3937 87.7451 26.3937C88.7499 26.8198 88.5033 27.7374 88.7499 28.1563C89.7658 29.882 90.9149 31.5284 91.6521 33.4068C92.0932 34.5307 92.86 35.9178 92.9522 37.1123C93.073 38.6783 93.944 40.1858 94.121 41.7737C94.2006 42.4882 94.7504 42.7084 94.8301 43.4235C94.9086 44.1279 94.785 44.8404 94.8958 45.5447C95.1898 47.4139 94.813 48.5063 94.3705 50.2715C94.1029 51.3386 94.1341 52.3688 94.1341 53.4663C94.1341 54.0344 94.354 55.1359 94.0816 55.6791C92.8308 58.1734 91.8458 60.8208 90.0106 63.0378C88.0802 65.3697 86.6157 67.9771 85.0335 70.5012C84.5147 71.3288 83.8147 72.1748 83.2081 72.989C82.368 74.1166 81.9996 75.3988 81.2645 76.5505C79.4575 79.3818 78.5181 82.5664 76.4056 85.2577C73.9524 88.3832 71.7982 91.7019 68.7364 94.3186C66.9735 95.8252 65.5246 97.5948 63.5229 98.8097C61.7856 99.8641 59.4826 100.417 57.4953 100.748C54.9271 101.174 52.1895 100.931 49.5897 100.931H41.6579C38.7548 100.931 36.3926 99.7836 33.7523 98.574C32.3584 97.9354 30.9974 97.2792 29.6025 96.5838C28.5609 96.0645 27.8418 95.1268 27.0023 94.3316C25.6702 93.0698 24.8703 91.8674 23.9294 90.3774C23.3047 89.3882 22.6066 88.2339 21.8151 87.3789C21.0089 86.5081 20.3251 85.1537 19.6746 84.1448C18.6171 82.5046 17.5895 80.1048 17.2976 78.2133C17.1686 77.3773 16.2768 76.3969 15.748 75.7779C14.8771 74.7585 14.3876 73.4849 13.5812 72.4129L13.5385 72.3561C12.6881 71.2256 11.6906 69.8997 11.0598 68.6419C10.455 67.4358 10.2174 66.0551 9.86482 64.7662C9.46745 63.3134 8.65596 61.9787 8.38088 60.4976C8.01125 58.5075 7.46568 56.5816 6.81815 54.6447C6.03228 52.2941 4.43652 50.1924 5.20289 47.6135C5.40998 46.9166 5.23531 46.0308 5.25542 45.309C5.28114 44.3856 4.87082 43.4362 5.20289 42.5849C5.4419 41.9721 5.7593 41.1158 5.60999 40.4905C5.44697 39.8078 5.4918 39.1205 5.4918 38.4217C5.4918 35.967 7.06388 33.7202 7.56668 31.3249C7.96604 29.4225 8.51799 26.4541 10.0355 25.0923C10.6713 24.5219 11.2471 23.682 11.6902 22.9188C12.2812 21.9009 13.3218 21.2161 13.8833 20.2084C14.1692 19.6952 14.4087 18.5576 14.4742 17.9694C14.5609 17.1913 15.5113 15.6467 15.9975 15.0233C17.6773 12.87 19.1535 11.7476 21.9202 10.8988C23.2199 10.5001 24.4527 9.39256 25.8204 9.24901C26.4496 9.18297 27.0584 8.23908 27.4751 7.83489C28.2179 7.11424 29.0735 6.48566 29.9571 5.94941C31.0864 5.26399 32.1892 4.36424 33.2178 3.52502L33.2795 3.4747C34.5019 2.47747 36.9246 2.31913 38.4011 2.12606C41.362 1.73888 44.3347 1 47.2784 1C50.0585 1 52.8553 1.23569 55.6042 1.23569C56.7135 1.23569 57.6143 1.80444 58.6772 1.95584Z" stroke="black" stroke-linecap="round" stroke-linejoin="round"/>
</g>
<defs>
<filter id="filter0_d" x="0.499969" y="0.5" width="98.9996" height="109" filterUnits="userSpaceOnUse" color-interpolation-filters="sRGB">
<feFlood flood-opacity="0" result="BackgroundImageFix"/>
<feColorMatrix in="SourceAlpha" type="matrix" values="0 0 0 0 0 0 0 0 0 0 0 0 0 0 0 0 0 0 127 0"/>
<feOffset dy="4"/>
<feGaussianBlur stdDeviation="2"/>
<feColorMatrix type="matrix" values="0 0 0 0 0 0 0 0 0 0 0 0 0 0 0 0 0 0 0.25 0"/>
<feBlend mode="normal" in2="BackgroundImageFix" result="effect1_dropShadow"/>
<feBlend mode="normal" in="SourceGraphic" in2="effect1_dropShadow" result="shape"/>
</filter>
</defs>
</svg>
