<svg width="110" height="81" viewBox="0 0 110 81" fill="none" xmlns="http://www.w3.org/2000/svg">
<g filter="url(#filter0_d)">
<path d="M57.5128 61.6562C57.8354 62.531 62.5129 69.7954 62.9185 70.5287C63.4476 71.4851 65.7544 71.1932 66.6444 71.537C68.9595 72.4312 73.5408 71.8872 75.8587 71.1113C80.0282 69.7155 84.2449 67.6396 88.3081 65.8908C89.846 65.2289 91.451 64.1031 92.7479 63.0901C93.6302 62.401 96.3201 62.6043 96.8754 61.6562C98.1615 59.4606 99.013 57.1232 100.177 54.9794C100.925 53.6036 102.492 52.3847 102.587 50.7671C102.645 49.7705 103.434 47.3281 103.881 46.3309C105.121 43.5633 104.997 38.8641 104.997 35.8227C104.997 30.9971 103.312 28.3328 100.378 24.732C97.8826 21.6689 95.3596 18.908 92.5471 16.0835C89.7949 13.3196 87.3786 9.74368 83.7121 8.10721C82.097 7.38633 80.0244 7.43051 78.3129 6.62845C76.0634 5.57423 72.475 5.5978 70.058 5.5978C68.3756 5.5978 66.9872 5.19451 65.4397 5.19451C62.921 5.19451 60.4726 5.43851 58.0994 4.47753C56.2362 3.72305 54.3186 3.17197 52.4102 2.57307C50.6943 2.03459 33.6026 0.0366954 33.5131 1.56483C33.4197 3.15946 33.1277 4.02836 32.7322 5.41856C32.5632 6.01265 33.9147 7.65166 33.9147 8.62254C33.9147 10.971 31.0523 9.48013 29.6979 10.2357C28.6474 10.8218 26.4559 11.244 25.2804 11.244C22.0967 11.244 20.2662 10.171 17.4494 8.91381C14.2409 7.48178 14.0101 13.3338 13.0318 15.0529C12.4041 16.1561 12.4159 17.2574 13.3442 18.1897C14.5235 19.3739 14.6382 20.4884 14.6382 22.133C14.6382 24.8212 14.4115 28.1825 11.0239 28.1825C7.4698 28.1825 5 32.4871 5 35.6435C5 36.4968 6.4307 38.0129 7.23107 38.2425C9.07072 38.7704 10.2599 38.6507 12.0279 37.8616C13.4583 37.2232 14.8256 36.5681 16.2446 35.9348C17.5312 35.3605 19.2117 35.6392 20.3498 34.7249C21.2165 34.0285 23.5832 33.4253 24.678 33.4253C25.4915 33.4253 28.4128 33.4092 29.0063 32.9324C31.2624 31.1199 33.6472 30.6023 36.525 30.6023C39.5769 30.6023 40.9034 32.2755 42.3481 34.8145C42.7543 35.5283 44.3067 36.2118 44.3561 37.055C44.4462 38.5939 44.7608 38.6466 44.9325 40.1118C45.0693 41.28 43.0439 43.825 45.6719 46.0529C47.2343 47.0661 47.5573 47.35 48.4612 48.2577C50.6317 50.4375 51.9541 53.4167 53.1911 56.2117C54.1113 58.291 57.0038 59.833 57.5863 61.8802" stroke="black" stroke-linecap="round" stroke-linejoin="round"/>
</g>
<defs>
<filter id="filter0_d" x="0.5" y="0.5" width="109" height="80" filterUnits="userSpaceOnUse" color-interpolation-filters="sRGB">
<feFlood flood-opacity="0" result="BackgroundImageFix"/>
<feColorMatrix in="SourceAlpha" type="matrix" values="0 0 0 0 0 0 0 0 0 0 0 0 0 0 0 0 0 0 127 0"/>
<feOffset dy="4"/>
<feGaussianBlur stdDeviation="2"/>
<feColorMatrix type="matrix" values="0 0 0 0 0 0 0 0 0 0 0 0 0 0 0 0 0 0 0.25 0"/>
<feBlend mode="normal" in2="BackgroundImageFix" result="effect1_dropShadow"/>
<feBlend mode="normal" in="SourceGraphic" in2="effect1_dropShadow" result="shape"/>
</filter>
</defs>
</svg>
