<svg width="66" height="102" viewBox="0 0 66 102" fill="none" xmlns="http://www.w3.org/2000/svg">
<path d="M15.2241 1.93521C18.9082 0.224111 21.883 1.18307 25.2184 2.25903C26.547 2.16498 39.5384 4.55601 40.8828 4.91753C42.7806 5.42786 43.3237 6.8703 44.6297 7.93557C46.4197 9.39576 47.0897 11.8435 48.7627 13.4729C51.3385 15.9815 53.4812 18.1136 55.289 21.2191C59.7845 28.9415 61.673 38.0509 63.6566 46.5351C65.0184 52.3594 65.6444 59.5353 64.0803 65.5101C62.2345 72.5613 57.7739 79.1715 53.5878 85.6999C52.1811 87.8937 51.0737 89.036 48.716 90.7802C44.1021 94.1935 39.3124 99.1308 33.0176 100.51C24.2911 102.422 17.1317 98.3855 11.1457 94.492C8.57169 92.8178 3.51462 91.0871 3.04433 87.9939C2.5572 84.7898 5.42069 80.3121 6.50437 77.1099C8.49255 71.2349 5.4434 71.2912 7.92346 65.4832C7.92346 61.1861 5.9972 57.7175 5.5528 56.5153C4.24007 52.9642 10.9848 49.3193 8.99675 45.9845C4.31762 38.1356 0.224837 30.5943 1.12521 21.2543C1.74924 14.7808 7.48346 5.53041 15.2241 1.93521Z" stroke="black" stroke-linecap="round" stroke-linejoin="round"/>
</svg>
