<svg width="110" height="100" viewBox="0 0 110 100" fill="none" xmlns="http://www.w3.org/2000/svg">
<g filter="url(#filter0_d)">
<path d="M53.4575 4.26077C61.3996 0.419812 69.8837 1.03642 78.7224 1.03642C80.9069 1.03642 82.274 1.21842 84.2361 2.01972C85.1016 2.37318 86.1113 2.93673 87.0688 3.13225C88.4606 3.41645 89.7538 4.31625 91.1042 4.76745C93.582 5.59539 94.9436 8.12817 97.2198 9.23548C99.875 10.5271 103.07 14.7319 103.511 17.3654C103.942 19.9411 105.869 22.3302 104.539 25.0809C103.11 28.0353 103.536 32.65 103.536 35.8594C103.536 42.7136 102.818 49.8799 100.804 56.357C99.8444 59.4434 96.3662 61.7958 95.0643 64.7864C94.1846 66.8074 91.7178 68.7433 90.252 70.4751C88.474 72.5756 88.0928 73.6612 85.4897 74.9201C83.1558 76.0488 81.0158 77.3114 78.948 78.7893C74.7131 81.8159 69.4746 84.5121 64.7365 86.6889C58.8074 89.413 53.7522 90.9958 47.1413 90.9958C44.4878 90.9958 42.1581 91.1795 40.374 89.1302C39.1174 87.6869 36.3231 86.5981 34.6092 85.6065C32.2207 84.2246 30.4983 81.7166 27.9671 80.4245C25.0676 78.9444 22.8117 75.8111 20.523 73.5843C19.577 72.6639 18.5723 71.7918 17.5654 70.8666C15.8762 69.3144 15.3358 67.2982 13.9812 65.5004C11.3284 61.9794 10.8813 57.8314 8.7929 54.1C7.35542 51.5317 7.35763 48.9148 6.31153 46.2234C5.17055 43.2878 4.33196 37.9311 5.73505 35.0303C6.73022 32.9728 8.51847 30.5444 10.1464 28.8349C12.4241 26.4429 15.2436 24.9573 17.7158 22.6856C20.2029 20.4003 22.8592 16.895 26.1625 15.546C28.9318 14.415 31.0255 12.3956 33.6066 11.078C35.9605 9.87634 37.852 7.79281 40.5995 7.23178C42.3119 6.88212 44.0211 6.06333 45.7878 5.6887C48.1573 5.18626 51.3027 5.30287 53.4575 4.26077Z" stroke="black" stroke-linecap="round" stroke-linejoin="round"/>
</g>
<defs>
<filter id="filter0_d" x="0.5" y="0.499016" width="109" height="99.0025" filterUnits="userSpaceOnUse" color-interpolation-filters="sRGB">
<feFlood flood-opacity="0" result="BackgroundImageFix"/>
<feColorMatrix in="SourceAlpha" type="matrix" values="0 0 0 0 0 0 0 0 0 0 0 0 0 0 0 0 0 0 127 0"/>
<feOffset dy="4"/>
<feGaussianBlur stdDeviation="2"/>
<feColorMatrix type="matrix" values="0 0 0 0 0 0 0 0 0 0 0 0 0 0 0 0 0 0 0.25 0"/>
<feBlend mode="normal" in2="BackgroundImageFix" result="effect1_dropShadow"/>
<feBlend mode="normal" in="SourceGraphic" in2="effect1_dropShadow" result="shape"/>
</filter>
</defs>
</svg>
