<svg width="80" height="109" viewBox="0 0 80 109" fill="none" xmlns="http://www.w3.org/2000/svg">
<g filter="url(#filter0_d)">
<path d="M32.7246 1.12042C28.7199 1.12042 24.8507 0.391126 21.498 2.52201C19.0461 4.08032 17.6528 6.40761 15.613 8.44484C13.2077 10.8472 10.9398 14.0724 9.32064 17.0126C7.42777 20.4499 5.22052 24.787 5.0201 28.7904C4.80066 33.1739 6.42776 37.6467 7.46462 41.789C8.07498 44.2274 9.72955 46.6156 11.5388 48.3222C14.6346 51.2423 20.7059 53.4094 21.7017 57.8846C22.9431 63.4642 22.0713 70.4726 18.465 74.9749C15.9027 78.1738 16.0204 83.4189 16.0204 87.3857C16.0204 89.724 17.9956 91.2819 19.2798 92.9921C20.6941 94.8754 22.9952 94.7371 24.78 95.7274C25.9203 96.3601 28.0149 95.9309 29.2616 95.9309C30.7076 95.9309 32.0497 96.691 33.4489 96.7447C35.1659 96.8107 37.5963 97.9001 38.9265 99.0957C39.6153 99.7149 40.3957 100 41.2805 100C42.9002 100 44.5965 99.5579 46.1695 99.2088C46.9615 99.033 47.2883 98.2827 48.0029 97.9654C50.1627 97.0067 51.1563 93.8909 51.8734 91.8618C52.5931 89.8252 53.6472 86.4158 54.9516 84.7408C55.7379 83.7311 56.2249 82.4664 56.9887 81.4855C57.7145 80.5535 60.0093 79.7335 61.1535 79.3379C64.2203 78.2777 64.9108 77.5212 64.9108 74.3646C64.9108 71.5555 65.367 70.6319 66.9479 68.3513C68.9878 65.4084 72.7658 63.9559 74.0777 60.4617C75.2719 57.2814 75.5375 55.1801 73.4666 52.5948C71.7153 50.4083 68.6906 46.8421 65.7256 45.9712C64.4605 45.5995 59.6143 44.0625 59.6143 42.422C59.6143 39.3957 60.345 36.9411 61.1535 34.2159C61.6921 32.4002 61.244 29.8775 61.244 27.9766C61.244 26.2134 61.6856 23.7519 61.0403 22.0764C60.3358 20.247 59.4026 18.9286 58.0073 17.4421C57.0032 16.3724 56.1369 15.2018 55.1327 14.1416C54.1518 13.106 53.4549 11.3516 52.2808 10.5698C49.8898 8.97779 47.1837 7.74952 44.7209 6.18422C42.0717 4.50047 39.6374 3.62526 36.7988 2.43158C35.2804 1.79305 33.1036 1.12042 31.5024 1.12042" stroke="black" stroke-linecap="round" stroke-linejoin="round"/>
</g>
<defs>
<filter id="filter0_d" x="0.5" y="0.500004" width="79" height="108" filterUnits="userSpaceOnUse" color-interpolation-filters="sRGB">
<feFlood flood-opacity="0" result="BackgroundImageFix"/>
<feColorMatrix in="SourceAlpha" type="matrix" values="0 0 0 0 0 0 0 0 0 0 0 0 0 0 0 0 0 0 127 0"/>
<feOffset dy="4"/>
<feGaussianBlur stdDeviation="2"/>
<feColorMatrix type="matrix" values="0 0 0 0 0 0 0 0 0 0 0 0 0 0 0 0 0 0 0.25 0"/>
<feBlend mode="normal" in2="BackgroundImageFix" result="effect1_dropShadow"/>
<feBlend mode="normal" in="SourceGraphic" in2="effect1_dropShadow" result="shape"/>
</filter>
</defs>
</svg>
