<svg width="76" height="110" viewBox="0 0 76 110" fill="none" xmlns="http://www.w3.org/2000/svg">
<g filter="url(#filter0_d)">
<path d="M36.0121 16.0336C37.0277 11.2694 41.4405 8.90799 45.2145 6.44519C47.9239 4.67714 54.0852 2.0691 57.283 1.64099C59.4959 1.34475 60.9301 0.463573 63.0695 1.46706C64.8937 2.32274 66.8683 3.51436 67.9674 5.24754C69.3308 7.39739 70.5488 9.10736 70.0625 11.7292C69.8215 13.029 70.0861 14.595 70.0327 15.9195C69.9473 18.0423 70.0853 20.1724 69.9693 22.2931C69.7909 25.5523 69.2983 28.697 69.3016 31.9805C69.304 34.3645 69.5591 37.1153 69.0459 39.5223C68.7854 40.7441 69.5873 42.4915 69.8397 43.687C70.0793 44.8222 70.0859 46.1351 70.4734 47.2169C70.7039 47.8604 71.0313 48.0955 70.9976 48.8086C70.8638 51.6417 70.5252 54.4043 70.3456 57.1966C70.1878 59.6492 69.5793 62.2157 69.7078 64.6654C69.7712 65.8735 68.1958 67.8892 67.2532 68.5043C63.0122 71.2718 58.8105 74.7821 57.5649 79.9454C57.1548 81.6452 55.4111 84.0087 53.6203 84.3774C51.2437 84.8667 49.1886 84.4048 46.8848 84.5261C46.0925 84.5678 45.4033 84.1862 44.528 84.2819C43.6847 84.3741 42.4072 84.7547 41.6743 85.1962C39.4897 86.5123 38.4519 87.6486 37.0572 89.7448C33.154 95.6114 28.1279 101.434 20.517 100.974C12.1499 100.469 8.4742 90.3793 5.83244 83.9393C5.03407 81.993 5.38666 80.3444 5.10983 78.2683C4.78812 75.8557 5.1868 73.2731 6.12713 71.0448C7.26213 68.3551 8.15874 65.6647 9.61159 63.1213C10.3553 61.8193 11.1767 60.5768 11.4943 59.0868C11.8029 57.6392 12.4444 55.9358 11.6153 54.6284L8.94516 50.4179C7.95081 48.85 7.01142 45.0254 8.91685 43.7819C11.2014 42.2911 13.5231 40.3506 16.0576 39.3876C17.3553 38.8945 18.6191 38.0852 19.8083 37.3571C21.7793 36.1503 23.9807 35.3168 25.9482 34.0329C29.5771 31.6648 32.8976 27.5453 34.2401 23.3324C35.0265 20.8648 35.4763 18.5465 36.0121 16.0336Z" stroke="black" stroke-linecap="round" stroke-linejoin="round"/>
</g>
<defs>
<filter id="filter0_d" x="0.499985" y="0.50005" width="75" height="109" filterUnits="userSpaceOnUse" color-interpolation-filters="sRGB">
<feFlood flood-opacity="0" result="BackgroundImageFix"/>
<feColorMatrix in="SourceAlpha" type="matrix" values="0 0 0 0 0 0 0 0 0 0 0 0 0 0 0 0 0 0 127 0"/>
<feOffset dy="4"/>
<feGaussianBlur stdDeviation="2"/>
<feColorMatrix type="matrix" values="0 0 0 0 0 0 0 0 0 0 0 0 0 0 0 0 0 0 0.25 0"/>
<feBlend mode="normal" in2="BackgroundImageFix" result="effect1_dropShadow"/>
<feBlend mode="normal" in="SourceGraphic" in2="effect1_dropShadow" result="shape"/>
</filter>
</defs>
</svg>
